<svg width="506" height="641" viewBox="0 0 506 641" fill="none" xmlns="http://www.w3.org/2000/svg">
<path d="M181.617 138.709C201.17 138.71 216.913 154.694 216.829 174.366L216.553 238.18H279.785C299.338 238.18 315.081 254.166 314.996 273.838C314.911 293.51 299.03 309.495 279.477 309.495H216.246L215.971 373.309C215.886 392.981 200.005 408.965 180.452 408.966C160.899 408.966 145.155 392.981 145.24 373.309L145.515 309.495H82.2831C62.7304 309.495 46.987 293.51 47.0716 273.838C47.1564 254.166 63.0377 238.18 82.5905 238.18H145.822L146.097 174.366C146.182 154.694 162.064 138.709 181.617 138.709Z" fill="#CB35D1" stroke="black" stroke-width="5"/>
<path d="M369.559 46C378.197 46 385.229 53.0738 385.191 61.8748L385.003 105.625H428.403C437.041 105.626 444.073 112.699 444.035 121.5C443.997 130.301 436.904 137.375 428.266 137.375H384.866L384.677 181.125C384.639 189.926 377.546 197 368.908 197C360.27 196.999 353.238 189.926 353.276 181.125L353.465 137.375H310.064C301.426 137.375 294.395 130.301 294.432 121.5C294.47 112.699 301.563 105.625 310.201 105.625H353.601L353.79 61.8748C353.828 53.0739 360.921 46.0002 369.559 46Z" fill="#FF4911" stroke="black" stroke-width="8"/>
<path d="M362.268 403.496C377.396 403.496 389.554 415.859 389.489 431.046L389.297 475.648H433.476C448.604 475.648 460.762 488.012 460.697 503.199C460.631 518.386 448.367 530.749 433.238 530.749H389.059L388.867 575.351C388.802 590.538 376.537 602.902 361.408 602.902C346.28 602.902 334.123 590.538 334.188 575.351L334.381 530.749H290.202C275.073 530.749 262.915 518.386 262.981 503.199C263.046 488.012 275.311 475.648 290.439 475.648H334.618L334.81 431.046C334.876 415.86 347.14 403.496 362.268 403.496Z" fill="#FF69B4" stroke="black" stroke-width="7"/>
</svg>
