<svg width="340" height="389" viewBox="0 0 340 389" fill="none" xmlns="http://www.w3.org/2000/svg">
<path d="M227.866 1.00013C227.866 107.226 304.304 103.791 339.139 107.226C227.866 107.226 230.81 172.383 227.866 205.256C227.866 107.226 156.273 113.604 121.437 107.226C227.866 107.226 223.941 35.8356 227.866 1.00013Z" fill="#00DDB3" stroke="black" stroke-width="7.12095"/>
<path d="M190.87 255.136C190.87 324.434 240.736 322.193 263.461 324.434C190.87 324.434 192.791 366.94 190.87 388.385C190.87 324.434 144.165 328.595 121.44 324.434C190.87 324.434 188.31 277.861 190.87 255.136Z" fill="#FF7100" stroke="black" stroke-width="9"/>
<path d="M96.9513 187.014L94.4493 187.687L93.7755 190.188L80.9493 237.827L68.1222 190.188L67.4493 187.687L64.9474 187.014L17.3087 174.187L64.9474 161.36L67.4493 160.687L68.1222 158.185L80.9493 110.545L93.7755 158.185L94.4493 160.687L96.9513 161.36L144.591 174.187L96.9513 187.014Z" fill="#FF8EED" stroke="black" stroke-width="9"/>
</svg>
